<?xml version="1.0" encoding="utf-8"?>
<!-- Generator: Adobe Illustrator 22.1.0, SVG Export Plug-In . SVG Version: 6.00 Build 0)  -->
<svg version="1.1" xmlns="http://www.w3.org/2000/svg" xmlns:xlink="http://www.w3.org/1999/xlink" x="0px" y="0px"
	 viewBox="0 0 1200 800" style="enable-background:new 0 0 1200 800;" xml:space="preserve">
<style type="text/css">
	.st0{display:none;}
	.st1{display:inline;fill:#628C9E;}
	.st2{fill:#307EA6;}
	.st3{fill:#93BFCE;}
</style>
<g id="Layer_1" class="st0">
</g>
<g id="Layer_2" class="st0">
	<rect x="246.5" y="331.1" class="st1" width="16" height="16"/>
	<rect x="246.5" y="363.2" class="st1" width="16" height="16"/>
	<rect x="294.6" y="363.2" class="st1" width="16" height="16"/>
	<rect x="310.6" y="363.2" class="st1" width="16" height="16"/>
	<rect x="693.9" y="331.1" class="st1" width="16" height="16"/>
	<rect x="693.9" y="363.2" class="st1" width="16" height="16"/>
	<rect x="693.9" y="395.3" class="st1" width="16" height="16"/>
	<rect x="725.9" y="331.1" class="st1" width="16" height="16"/>
	<rect x="709.9" y="395.2" class="st1" width="16" height="16"/>
	<rect x="742" y="395.2" class="st1" width="16" height="16"/>
	<rect x="758" y="347.2" class="st1" width="16" height="16"/>
	<rect x="758" y="379.3" class="st1" width="16" height="16"/>
	<rect x="342.7" y="347.2" class="st1" width="16" height="16"/>
	<rect x="342.7" y="363.2" class="st1" width="16" height="16"/>
	<rect x="342.7" y="395.3" class="st1" width="16" height="16"/>
	<rect x="406.8" y="331.1" class="st1" width="16" height="16"/>
	<rect x="406.8" y="347.2" class="st1" width="16" height="16"/>
	<rect x="358.7" y="331.1" class="st1" width="16" height="16"/>
	<rect x="374.7" y="331.1" class="st1" width="16" height="16"/>
	<rect x="374.7" y="363.2" class="st1" width="16" height="16"/>
	<rect x="390.8" y="363.2" class="st1" width="16" height="16"/>
	<rect x="406.8" y="363.2" class="st1" width="16" height="16"/>
	<rect x="789.1" y="331.1" class="st1" width="16" height="16"/>
	<rect x="789.1" y="347.2" class="st1" width="16" height="16"/>
	<rect x="789.1" y="363.2" class="st1" width="16" height="16"/>
	<rect x="789.1" y="395.3" class="st1" width="16" height="16"/>
	<rect x="853.2" y="331.1" class="st1" width="16" height="16"/>
	<rect x="821.1" y="331.1" class="st1" width="16" height="16"/>
	<rect x="821.1" y="363.2" class="st1" width="16" height="16"/>
	<rect x="837.2" y="363.2" class="st1" width="16" height="16"/>
	<rect x="853.2" y="363.2" class="st1" width="16" height="16"/>
	<rect x="470.7" y="347.2" class="st1" width="16" height="16"/>
	<rect x="470.7" y="395.3" class="st1" width="16" height="16"/>
	<rect x="534.8" y="331.1" class="st1" width="16" height="16"/>
	<rect x="534.8" y="347.2" class="st1" width="16" height="16"/>
	<rect x="534.8" y="379.3" class="st1" width="16" height="16"/>
	<rect x="486.8" y="331.1" class="st1" width="16" height="16"/>
	<rect x="502.8" y="331.1" class="st1" width="16" height="16"/>
	<rect x="597.9" y="379.3" class="st1" width="16" height="16"/>
	<rect x="613.8" y="347.2" class="st1" width="16" height="16"/>
	<rect x="565.8" y="331.2" class="st1" width="16" height="16"/>
	<rect x="916.4" y="395.3" class="st1" width="16" height="16"/>
	<rect x="916.5" y="363.2" class="st1" width="16" height="16"/>
	<rect x="900.5" y="347.2" class="st1" width="16" height="16"/>
	<rect x="948.7" y="331.2" class="st1" width="16" height="16"/>
	<rect x="438.8" y="347.2" class="st1" width="16" height="16"/>
	<rect x="438.8" y="395.3" class="st1" width="16" height="16"/>
	<rect x="246.5" y="379.3" class="st1" width="16" height="16"/>
	<rect x="294.6" y="331.1" class="st1" width="16" height="16"/>
	<rect x="278.5" y="363.2" class="st1" width="16" height="16"/>
	<rect x="262.5" y="331.1" class="st1" width="16" height="16"/>
	<rect x="438.8" y="379.3" class="st1" width="16" height="16"/>
</g>
<g id="Layer_3">
	<rect x="246.5" y="395.3" class="st2" width="16" height="16"/>
	<rect x="278.5" y="331.1" class="st2" width="16" height="16"/>
	<rect x="262.5" y="363.2" class="st2" width="16" height="16"/>
	<rect x="310.6" y="395.2" class="st2" width="16" height="16"/>
	<rect x="246.5" y="347.2" class="st2" width="16" height="16"/>
	<rect x="310.6" y="347.2" class="st2" width="16" height="16"/>
	<rect x="294.6" y="379.2" class="st2" width="16" height="16"/>
	<rect x="342.7" y="331.1" class="st2" width="16" height="16"/>
	<rect x="342.7" y="379.3" class="st2" width="16" height="16"/>
	<rect x="406.8" y="379.3" class="st2" width="16" height="16"/>
	<rect x="406.8" y="395.3" class="st2" width="16" height="16"/>
	<rect x="390.8" y="331.1" class="st2" width="16" height="16"/>
	<rect x="358.7" y="363.2" class="st2" width="16" height="16"/>
	<rect x="438.8" y="331.1" class="st2" width="16" height="16"/>
	<rect x="438.8" y="363.2" class="st2" width="16" height="16"/>
	<rect x="470.7" y="331.1" class="st2" width="16" height="16"/>
	<rect x="470.7" y="363.2" class="st2" width="16" height="16"/>
	<rect x="470.7" y="379.3" class="st2" width="16" height="16"/>
	<rect x="534.8" y="395.3" class="st2" width="16" height="16"/>
	<rect x="518.8" y="331.1" class="st2" width="16" height="16"/>
	<rect x="534.8" y="363.2" class="st2" width="16" height="16"/>
	<rect x="597.8" y="395.3" class="st2" width="16" height="16"/>
	<rect x="597.8" y="363.2" class="st2" width="16" height="16"/>
	<rect x="581.8" y="347.2" class="st2" width="16" height="16"/>
	<rect x="630" y="331.2" class="st2" width="16" height="16"/>
	<rect x="693.9" y="347.2" class="st2" width="16" height="16"/>
	<rect x="693.9" y="379.3" class="st2" width="16" height="16"/>
	<rect x="709.9" y="331.1" class="st2" width="16" height="16"/>
	<rect x="742" y="331.1" class="st2" width="16" height="16"/>
	<rect x="725.9" y="395.2" class="st2" width="16" height="16"/>
	<rect x="758" y="363.2" class="st2" width="16" height="16"/>
	<rect x="789.1" y="379.3" class="st2" width="16" height="16"/>
	<rect x="853.2" y="347.2" class="st2" width="16" height="16"/>
	<rect x="853.2" y="379.3" class="st2" width="16" height="16"/>
	<rect x="853.2" y="395.3" class="st2" width="16" height="16"/>
	<rect x="805.1" y="331.1" class="st2" width="16" height="16"/>
	<rect x="837.2" y="331.1" class="st2" width="16" height="16"/>
	<rect x="805.1" y="363.2" class="st2" width="16" height="16"/>
	<rect x="916.5" y="379.3" class="st2" width="16" height="16"/>
	<rect x="932.5" y="347.2" class="st2" width="16" height="16"/>
	<rect x="884.5" y="331.2" class="st2" width="16" height="16"/>
</g>
<g id="Layer_4">
	<g id="Layer_4_1_">
		<rect x="303.8" y="312.2" class="st3" width="16" height="16"/>
		<rect x="280.2" y="281.6" class="st3" width="16" height="16"/>
		<rect x="230.5" y="301.8" class="st3" width="16" height="16"/>
		<rect x="214.7" y="375.5" class="st3" width="16" height="16"/>
		<rect x="269.4" y="347.2" class="st3" width="16" height="16"/>
		<rect x="326.7" y="371.7" class="st3" width="16" height="16"/>
		<rect x="362.7" y="305.3" class="st3" width="16" height="16"/>
		<rect x="414.6" y="315.1" class="st3" width="16" height="16"/>
		<rect x="464.2" y="287.3" class="st3" width="16" height="16"/>
		<rect x="454.8" y="386.6" class="st3" width="16" height="16"/>
		<rect x="491.9" y="375.6" class="st3" width="16" height="16"/>
		<rect x="518.9" y="351.8" class="st3" width="16" height="16"/>
		<rect x="509.2" y="412.1" class="st3" width="16" height="16"/>
		<rect x="512.1" y="302.5" class="st3" width="16" height="16"/>
		<rect x="605.4" y="321.7" class="st3" width="16" height="16"/>
		<rect x="576.5" y="288.1" class="st3" width="16" height="16"/>
		<rect x="646.7" y="270.8" class="st3" width="16" height="16"/>
		<rect x="637.1" y="372.7" class="st3" width="16" height="16"/>
		<rect x="677.7" y="339" class="st3" width="16" height="16"/>
		<rect x="689" y="299.6" class="st3" width="16" height="16"/>
		<rect x="742.9" y="281.4" class="st3" width="16" height="16"/>
		<rect x="770.8" y="421" class="st3" width="16" height="16"/>
		<rect x="782.7" y="314.9" class="st3" width="16" height="16"/>
		<rect x="814.4" y="347.3" class="st3" width="16" height="16"/>
		<rect x="843.1" y="305.1" class="st3" width="16" height="16"/>
		<rect x="911.1" y="331.3" class="st3" width="16" height="16"/>
		<rect x="893.3" y="272.4" class="st3" width="16" height="16"/>
		<rect x="964.6" y="321.5" class="st3" width="16" height="16"/>
		<rect x="938.4" y="286.6" class="st3" width="16" height="16"/>
		<rect x="903.4" y="416" class="st3" width="16" height="16"/>
		<rect x="942.1" y="389.9" class="st3" width="16" height="16"/>
		<rect x="815.5" y="263.3" class="st3" width="16" height="16"/>
		<rect x="831.5" y="391" class="st3" width="16" height="16"/>
		<rect x="869.4" y="371.3" class="st3" width="16" height="16"/>
		<rect x="716.9" y="352.1" class="st3" width="16" height="16"/>
		<rect x="734.8" y="379.1" class="st3" width="16" height="16"/>
		<rect x="665.9" y="399.6" class="st3" width="16" height="16"/>
		<rect x="566" y="384.2" class="st3" width="16" height="16"/>
		<rect x="590.9" y="418.8" class="st3" width="16" height="16"/>
		<rect x="541" y="256.4" class="st3" width="16" height="16"/>
		<rect x="386.5" y="347.2" class="st3" width="16" height="16"/>
		<rect x="350.6" y="417.8" class="st3" width="16" height="16"/>
		<rect x="422.8" y="356.2" class="st3" width="16" height="16"/>
		<rect x="380.5" y="263.8" class="st3" width="16" height="16"/>
		<rect x="292" y="431.3" class="st3" width="16" height="16"/>
	</g>
</g>
</svg>
