<?xml version="1.0" encoding="utf-8"?>
<!-- Generator: Adobe Illustrator 22.1.0, SVG Export Plug-In . SVG Version: 6.00 Build 0)  -->
<svg version="1.1" id="Layer_1" xmlns="http://www.w3.org/2000/svg" xmlns:xlink="http://www.w3.org/1999/xlink" x="0px" y="0px"
	 viewBox="0 0 1200 800" style="enable-background:new 0 0 1200 800;" xml:space="preserve">
<style type="text/css">
	.st0{display:none;}
	.st1{display:inline;fill:#36879E;}
	.st2{fill:#2E95BF;}
	.st3{fill:#9CCEDB;}
	.st4{display:inline;fill:#91D2E5;}
</style>
<g id="Layer_1_1_" class="st0">
</g>
<g id="Layer_2_1_" class="st0">
	<rect x="104.2" y="322.6" class="st1" width="23" height="23"/>
	<rect x="104.2" y="368.6" class="st1" width="23" height="23"/>
	<rect x="150.2" y="368.6" class="st1" width="23" height="23"/>
	<rect x="173.2" y="368.6" class="st1" width="23" height="23"/>
	<rect x="196.2" y="368.6" class="st1" width="23" height="23"/>
	<rect x="104.2" y="391.6" class="st1" width="23" height="23"/>
	<rect x="127.2" y="322.6" class="st1" width="23" height="23"/>
	<rect x="173.2" y="322.6" class="st1" width="23" height="23"/>
	<rect x="265.2" y="322.6" class="st1" width="23" height="23"/>
	<rect x="288.2" y="322.6" class="st1" width="23" height="23"/>
	<rect x="288.2" y="368.6" class="st1" width="23" height="23"/>
	<rect x="311.2" y="368.6" class="st1" width="23" height="23"/>
	<rect x="334.2" y="368.6" class="st1" width="23" height="23"/>
	<rect x="334.2" y="391.6" class="st1" width="23" height="23"/>
	<rect x="334.2" y="345.6" class="st1" width="23" height="23"/>
	<rect x="380.2" y="345.7" class="st1" width="23" height="23"/>
	<rect x="380.2" y="391.7" class="st1" width="23" height="23"/>
	<rect x="380.2" y="414.7" class="st1" width="23" height="23"/>
	<rect x="426.2" y="345.6" class="st1" width="23" height="23"/>
	<rect x="449.2" y="322.7" class="st1" width="23" height="23"/>
	<rect x="472.2" y="322.6" class="st1" width="23" height="23"/>
	<rect x="518.2" y="322.6" class="st1" width="23" height="23"/>
	<rect x="564.2" y="322.6" class="st1" width="23" height="23"/>
	<rect x="748.2" y="322.6" class="st1" width="23" height="23"/>
	<rect x="748.2" y="368.6" class="st1" width="23" height="23"/>
	<rect x="748.2" y="414.6" class="st1" width="23" height="23"/>
	<rect x="771.2" y="414.6" class="st1" width="23" height="23"/>
	<rect x="817.2" y="414.6" class="st1" width="23" height="23"/>
	<rect x="886.2" y="414.6" class="st1" width="23" height="23"/>
	<rect x="840.2" y="391.6" class="st1" width="23" height="23"/>
	<rect x="840.2" y="345.6" class="st1" width="23" height="23"/>
	<rect x="886.2" y="322.6" class="st1" width="23" height="23"/>
	<rect x="886.2" y="345.6" class="st1" width="23" height="23"/>
	<rect x="886.2" y="368.6" class="st1" width="23" height="23"/>
	<rect x="932.2" y="322.7" class="st1" width="23" height="23"/>
	<rect x="978.2" y="322.6" class="st1" width="23" height="23"/>
	<rect x="1047.2" y="345.6" class="st1" width="23" height="23"/>
	<rect x="1070.2" y="368.6" class="st1" width="23" height="23"/>
	<rect x="1116.2" y="322.6" class="st1" width="23" height="23"/>
	<rect x="1070.2" y="414.6" class="st1" width="23" height="23"/>
	<rect x="932.2" y="368.6" class="st1" width="23" height="23"/>
	<rect x="955.2" y="368.6" class="st1" width="23" height="23"/>
	<rect x="978.2" y="368.6" class="st1" width="23" height="23"/>
	<rect x="978.2" y="391.6" class="st1" width="23" height="23"/>
	<rect x="794.2" y="322.6" class="st1" width="23" height="23"/>
	<rect x="610.2" y="391.6" class="st1" width="23" height="23"/>
	<rect x="633.2" y="345.6" class="st1" width="23" height="23"/>
	<rect x="518.2" y="345.6" class="st1" width="23" height="23"/>
	<rect x="518.2" y="391.6" class="st1" width="23" height="23"/>
	<rect x="426.2" y="414.6" class="st1" width="23" height="23"/>
	<rect x="334.2" y="322.6" class="st1" width="23" height="23"/>
	<rect x="242.2" y="345.6" class="st1" width="23" height="23"/>
	<rect x="242.2" y="368.6" class="st1" width="23" height="23"/>
	<rect x="242.2" y="414.6" class="st1" width="23" height="23"/>
	<rect x="426.2" y="391.7" class="st1" width="23" height="23"/>
</g>
<g id="Layer_3">
	<rect x="149.7" y="323.7" class="st2" width="22.9" height="22.9"/>
	<rect x="241.3" y="323.7" class="st2" width="22.9" height="22.9"/>
	<rect x="310" y="323.7" class="st2" width="22.9" height="22.9"/>
	<rect x="378.6" y="323.8" class="st2" width="22.9" height="22.9"/>
	<rect x="378.6" y="369.6" class="st2" width="22.9" height="22.9"/>
	<rect x="424.4" y="323.7" class="st2" width="22.9" height="22.9"/>
	<rect x="493.1" y="323.8" class="st2" width="22.9" height="22.9"/>
	<rect x="515.9" y="369.5" class="st2" width="22.9" height="22.9"/>
	<rect x="584.6" y="346.6" class="st2" width="22.9" height="22.9"/>
	<rect x="653.3" y="323.8" class="st2" width="22.9" height="22.9"/>
	<rect x="767.7" y="323.8" class="st2" width="22.9" height="22.9"/>
	<rect x="744.8" y="346.6" class="st2" width="22.9" height="22.9"/>
	<rect x="744.8" y="392.4" class="st2" width="22.9" height="22.9"/>
	<rect x="790.6" y="415.2" class="st2" width="22.9" height="22.9"/>
	<rect x="836.4" y="369.5" class="st2" width="22.9" height="22.9"/>
	<rect x="882.1" y="392.4" class="st2" width="22.9" height="22.9"/>
	<rect x="905" y="369.5" class="st2" width="22.9" height="22.9"/>
	<rect x="813.5" y="323.8" class="st2" width="22.9" height="22.9"/>
	<rect x="905" y="323.8" class="st2" width="22.9" height="22.9"/>
	<rect x="950.8" y="323.8" class="st2" width="22.9" height="22.9"/>
	<rect x="1019.5" y="323.7" class="st2" width="22.9" height="22.9"/>
	<rect x="1065.2" y="392.4" class="st2" width="22.9" height="22.9"/>
	<rect x="1088.1" y="346.6" class="st2" width="22.9" height="22.9"/>
	<rect x="973.7" y="346.7" class="st2" width="22.9" height="22.9"/>
	<rect x="973.7" y="415.2" class="st2" width="22.9" height="22.9"/>
	<rect x="607.5" y="369.5" class="st2" width="22.9" height="22.9"/>
	<rect x="607.5" y="415.2" class="st2" width="22.9" height="22.9"/>
	<rect x="515.9" y="415.2" class="st2" width="22.9" height="22.9"/>
	<rect x="424.4" y="369.5" class="st2" width="22.9" height="22.9"/>
	<rect x="241.3" y="392.4" class="st2" width="22.9" height="22.9"/>
	<rect x="332.8" y="415.2" class="st2" width="22.9" height="22.9"/>
	<rect x="264.2" y="369.5" class="st2" width="22.9" height="22.9"/>
	<rect x="195.5" y="346.6" class="st2" width="22.9" height="22.9"/>
	<rect x="104" y="346.6" class="st2" width="22.9" height="22.9"/>
	<rect x="126.9" y="369.5" class="st2" width="22.9" height="22.9"/>
	<rect x="172.6" y="392.4" class="st2" width="22.9" height="22.9"/>
	<rect x="195.5" y="415.2" class="st2" width="22.9" height="22.9"/>
	<rect x="104" y="415.2" class="st2" width="22.9" height="22.9"/>
</g>
<g id="Layer_4">
	<rect x="195.5" y="300.8" class="st3" width="22.9" height="22.9"/>
	<rect x="152.2" y="252.8" class="st3" width="22.9" height="22.9"/>
	<rect x="81.1" y="275.3" class="st3" width="22.9" height="22.9"/>
	<rect x="58.5" y="387.3" class="st3" width="22.9" height="22.9"/>
	<rect x="126.9" y="346.6" class="st3" width="22.9" height="22.9"/>
	<rect x="218.4" y="392.4" class="st3" width="22.9" height="22.9"/>
	<rect x="264.2" y="286.5" class="st3" width="22.9" height="22.9"/>
	<rect x="367.9" y="273.6" class="st3" width="22.9" height="22.9"/>
	<rect x="415.6" y="261" class="st3" width="22.9" height="22.9"/>
	<rect x="401.5" y="346.7" class="st3" width="22.9" height="22.9"/>
	<rect x="447.3" y="415.2" class="st3" width="22.9" height="22.9"/>
	<rect x="493.1" y="380.9" class="st3" width="22.9" height="22.9"/>
	<rect x="470.2" y="438.2" class="st3" width="22.9" height="22.9"/>
	<rect x="484.2" y="282.8" class="st3" width="22.9" height="22.9"/>
	<rect x="630.4" y="300.8" class="st3" width="22.9" height="22.9"/>
	<rect x="576.4" y="262.2" class="st3" width="22.9" height="22.9"/>
	<rect x="677" y="237.4" class="st3" width="22.9" height="22.9"/>
	<rect x="663.2" y="383.3" class="st3" width="22.9" height="22.9"/>
	<rect x="721.9" y="339.8" class="st3" width="22.9" height="22.9"/>
	<rect x="737.5" y="278.6" class="st3" width="22.9" height="22.9"/>
	<rect x="814.7" y="252.5" class="st3" width="22.9" height="22.9"/>
	<rect x="859.3" y="463.9" class="st3" width="22.9" height="22.9"/>
	<rect x="882.1" y="300.8" class="st3" width="22.9" height="22.9"/>
	<rect x="927.9" y="346.7" class="st3" width="22.9" height="22.9"/>
	<rect x="958.1" y="286.5" class="st3" width="22.9" height="22.9"/>
	<rect x="1065.2" y="323.7" class="st3" width="22.9" height="22.9"/>
	<rect x="1030" y="260" class="st3" width="22.9" height="22.9"/>
	<rect x="1133.9" y="300.8" class="st3" width="22.9" height="22.9"/>
	<rect x="1094.5" y="243" class="st3" width="22.9" height="22.9"/>
	<rect x="1042.4" y="449" class="st3" width="22.9" height="22.9"/>
	<rect x="1105.9" y="407.9" class="st3" width="22.9" height="22.9"/>
	<rect x="918.6" y="226.7" class="st3" width="22.9" height="22.9"/>
	<rect x="941.5" y="409.5" class="st3" width="22.9" height="22.9"/>
	<rect x="996.6" y="392.4" class="st3" width="22.9" height="22.9"/>
	<rect x="790.6" y="346.7" class="st3" width="22.9" height="22.9"/>
	<rect x="813.5" y="392.4" class="st3" width="22.9" height="22.9"/>
	<rect x="704.4" y="421.8" class="st3" width="22.9" height="22.9"/>
	<rect x="561.4" y="399.7" class="st3" width="22.9" height="22.9"/>
	<rect x="597" y="456.7" class="st3" width="22.9" height="22.9"/>
	<rect x="527.4" y="205.4" class="st3" width="22.9" height="22.9"/>
	<rect x="298.5" y="346.6" class="st3" width="22.9" height="22.9"/>
	<rect x="258.9" y="447.9" class="st3" width="22.9" height="22.9"/>
	<rect x="355.7" y="392.5" class="st3" width="22.9" height="22.9"/>
	<rect x="295.8" y="233.4" class="st3" width="22.9" height="22.9"/>
	<rect x="169.2" y="467.2" class="st3" width="22.9" height="22.9"/>
</g>
<g id="Layer_5" class="st0">
	<rect x="104.2" y="322.6" class="st4" width="23" height="23"/>
</g>
</svg>
