<svg id="v1" xmlns="http://www.w3.org/2000/svg" viewBox="0 0 225.34 256.89"><defs><style>.cls-1{fill:#fff;stroke:#231815;stroke-linecap:round;stroke-linejoin:round;stroke-width:1.5px;}</style></defs><title>foot1</title><path class="cls-1" d="M169.23,34.25s5,17.75,3.5,58.75,7,87,17.75,107S213,224.75,213,224.75,227.73,230,236,236c0,0,8,4.5,13,5.75s15.25,4.75,15.25,4.75,6.75,3,11.25,3.75A95.72,95.72,0,0,1,286.23,253s5,.5,6.75,2.25a3.54,3.54,0,0,0,2.13.25c1.12-.25,8.75-3.62,10.75-1a8.5,8.5,0,0,1,1.5,5.88s-.88,5.12-4.75,7.37c0,0,3.75.63,1.62,6.13,0,0-1.62,3.62-4.5,3.5,0,0-.5,4.25-4.75,3.87a4.35,4.35,0,0,1-1.87-.56,4.62,4.62,0,0,1-1.63,3.44,8.15,8.15,0,0,1-8.87.87l-3.38-1.75-1.31-.75A3.66,3.66,0,0,1,275,287a19.08,19.08,0,0,1-8.25-.12s-4.37-1.13-7.62.37-14.88,2.5-19.13,2.38-25.62-2.88-25.62-2.88-33.54-5.25-44.38-4.08-23.5-.34-23.5-.34-17.83-1.16-18.83-17.5c0,0-.17-9.5,4.5-30.66s-7.67-52-7.67-52L103.23,122S80.23,69.75,84,44l1.5-9.75" transform="translate(-82.82 -33.5)"/><path class="cls-1" d="M274.48,261.25a55.71,55.71,0,0,1,21,9.5,5.44,5.44,0,0,1,4.25,6.63" transform="translate(-82.82 -33.5)"/><path class="cls-1" d="M268.73,265.75s5.75-.5,13.75,4.75l8,5.25a5.48,5.48,0,0,1,2.63,4.94" transform="translate(-82.82 -33.5)"/><path class="cls-1" d="M258.48,272a26.92,26.92,0,0,1,15.75,4.75,6.85,6.85,0,0,1,3.69,5.69" transform="translate(-82.82 -33.5)"/><path class="cls-1" d="M268.23,255.13a6.91,6.91,0,0,0,5,1.12c2.88-.5,8.88,1.13,8.88,1.13s10.62,3.25,12.75,6c0,0,1.12.87,2.12,1.5,0,0,5.25,2.37,5.63,2.87" transform="translate(-82.82 -33.5)"/><path class="cls-1" d="M295.71,260s-2.45-.62-1.29-4.5c0,0,6.76-3.75,9.93-3,0,0,1.44,5.88-2.45,6.75C301.9,259.25,298,260.38,295.71,260Z" transform="translate(-82.82 -33.5)"/><path class="cls-1" d="M303.61,268.25a4.08,4.08,0,0,1-2,1s-1.75-.25-2.13-1.37a2.38,2.38,0,0,1,2-1.13S303.73,267.25,303.61,268.25Z" transform="translate(-82.82 -33.5)"/><path class="cls-1" d="M299,272.63s.07,1.06-1.56,1.56c0,0-2.56-.69-2.81-1.94,0,0,.87-1.25,1.62-1.25C296.23,271,298.67,271.5,299,272.63Z" transform="translate(-82.82 -33.5)"/><path class="cls-1" d="M292.23,277.38a2.08,2.08,0,0,1-2,1.5s-1.75-.63-1.75-2.13c0,0,.88-1,1.5-1.12C290,275.63,292.11,276,292.23,277.38Z" transform="translate(-82.82 -33.5)"/><path class="cls-1" d="M277.48,280.38a2.29,2.29,0,0,1-2.12,1.5,3,3,0,0,1-1.25-2,1.91,1.91,0,0,1,1.62-1S277.48,279.38,277.48,280.38Z" transform="translate(-82.82 -33.5)"/><path class="cls-1" d="M148.47,218.51s-1,24.22,14.43,26.8" transform="translate(-82.82 -33.5)"/></svg>