<svg id="Layer_1" data-name="Layer 1" xmlns="http://www.w3.org/2000/svg" viewBox="0 0 497.19 262.42"><defs><style>.cls-1{fill:#ecce8f;}.cls-2{fill:#efd8a2;}.cls-3{fill:#fcf1ec;}.cls-3,.cls-4,.cls-5,.cls-6{stroke:#231815;stroke-linecap:round;stroke-width:1.5px;}.cls-3,.cls-4{stroke-linejoin:round;}.cls-4{fill:#e9453d;}.cls-5{fill:none;}.cls-5,.cls-6{stroke-miterlimit:10;}.cls-6{fill:#fff;}</style></defs><title>foot4</title><polyline class="cls-1" points="413.44 261.35 381.11 177.09 381.11 0.01 413.44 0.01 413.44 262.01"/><rect class="cls-2" x="413.34" y="0.01" width="83.52" height="261.66"/><path class="cls-3" d="M249,165.67s5,17.86,3.5,59.11,7,87.54,17.75,107.66,22.5,24.91,22.5,24.91,14.75,5.28,23,11.32c0,0,8,4.53,13,5.78S344,379.23,344,379.23s6.75,3,11.25,3.78A94.8,94.8,0,0,1,366,385.77s5,.51,6.75,2.27a3.54,3.54,0,0,0,2.13.25c1.12-.25,8.75-3.65,10.75-1a8.58,8.58,0,0,1,1.5,5.91s-.88,5.16-4.75,7.42c0,0,3.75.63,1.62,6.17,0,0-1.62,3.64-4.5,3.52,0,0-.5,4.28-4.75,3.9a4.27,4.27,0,0,1-1.87-.57,4.65,4.65,0,0,1-1.63,3.46,8.1,8.1,0,0,1-8.87.88L359,416.21l-1.31-.75a3.68,3.68,0,0,1-2.94,4.52,18.9,18.9,0,0,1-8.25-.12s-4.37-1.13-7.62.38-14.88,2.51-19.13,2.38-25.62-2.89-25.62-2.89-33.54-5.28-44.38-4.11-23.5-.33-23.5-.33-17.83-1.18-18.83-17.61c0,0-.17-9.56,4.5-30.86s-7.67-52.32-7.67-52.32L183,254s-23-52.57-19.25-78.48l1.5-9.81" transform="translate(-162.56 -164.65)"/><path class="cls-3" d="M354.22,394a55.45,55.45,0,0,1,21,9.59,5.48,5.48,0,0,1,4.25,6.69" transform="translate(-162.56 -164.65)"/><path class="cls-3" d="M348.47,398.53s5.75-.51,13.75,4.79l8,5.3a5.53,5.53,0,0,1,2.63,5" transform="translate(-162.56 -164.65)"/><path class="cls-3" d="M338.22,404.84A26.7,26.7,0,0,1,354,409.63a6.9,6.9,0,0,1,3.69,5.74" transform="translate(-162.56 -164.65)"/><path class="cls-3" d="M348,387.8a6.87,6.87,0,0,0,5,1.14c2.88-.51,8.88,1.13,8.88,1.13s10.62,3.28,12.75,6.06c0,0,1.12.88,2.12,1.51,0,0,5.25,2.4,5.63,2.91" transform="translate(-162.56 -164.65)"/><path class="cls-4" d="M375.45,392.72s-2.44-.63-1.29-4.54c0,0,6.76-3.78,9.93-3,0,0,1.44,5.93-2.45,6.82C381.64,392,377.76,393.1,375.45,392.72Z" transform="translate(-162.56 -164.65)"/><path class="cls-4" d="M383.35,401.05a4.06,4.06,0,0,1-2,1s-1.75-.25-2.13-1.39a2.38,2.38,0,0,1,2-1.13S383.47,400,383.35,401.05Z" transform="translate(-162.56 -164.65)"/><path class="cls-4" d="M378.72,405.47s.07,1.07-1.56,1.57c0,0-2.56-.69-2.81-2,0,0,.87-1.26,1.62-1.26C376,403.83,378.41,404.33,378.72,405.47Z" transform="translate(-162.56 -164.65)"/><path class="cls-4" d="M372,410.26s-.5,1.64-2,1.51c0,0-1.75-.63-1.75-2.14a4.19,4.19,0,0,1,1.5-1.14S371.85,408.87,372,410.26Z" transform="translate(-162.56 -164.65)"/><path class="cls-4" d="M357.22,413.29s-.62,1.64-2.12,1.51a3,3,0,0,1-1.25-2,1.91,1.91,0,0,1,1.62-1S357.22,412.28,357.22,413.29Z" transform="translate(-162.56 -164.65)"/><path class="cls-3" d="M228.21,350.84s-1,24.45,14.43,27.06" transform="translate(-162.56 -164.65)"/><polyline class="cls-5" points="496.44 261.67 413.29 261.67 413.29 0.75"/><line class="cls-6" x1="381.11" y1="177.09" x2="413.44" y2="261.35"/></svg>