<?xml version="1.0" encoding="utf-8"?>
<!-- Generator: Adobe Illustrator 22.1.0, SVG Export Plug-In . SVG Version: 6.00 Build 0)  -->
<svg version="1.1" id="Layer_1" xmlns="http://www.w3.org/2000/svg" xmlns:xlink="http://www.w3.org/1999/xlink" x="0px" y="0px"
	 viewBox="0 0 72 72" style="enable-background:new 0 0 72 72;" xml:space="preserve">
<style type="text/css">
	.st0{fill:#C5763B;}
	.st1{fill:#E2A83A;}
	.st2{fill:#553518;}
	.st3{fill:#EAC68C;}
</style>
<g>
	<polygon class="st0" points="12.7,34.8 13,49.9 15.6,52.7 16,56.8 19,59.4 22.3,62.6 29.2,64.7 32,66.3 35.2,68 37.5,68.1 
		40.7,66.2 44.1,65.3 47.5,62.3 50.7,62.2 53.8,59.2 56.7,56.4 57,52.9 59.3,51.8 59.4,37.1 51.3,37.3 21.1,36 	"/>
	<polygon class="st1" points="31.9,14.1 31.9,6 35,2.3 37.6,2.1 40.5,6.1 40.8,14.8 38.1,18.3 34.7,18.2 32.3,15.9 	"/>
	<polygon class="st1" points="25.5,12.1 46.1,12 50.2,14.9 52.9,14.9 56.3,18.2 59.4,21.3 62.2,24.1 62.2,31.5 61.2,33.7 59.3,36.2 
		49.8,36.2 47.5,40 25.2,40.1 23.1,36.9 13.3,36.9 9.5,33.9 9.7,24.5 12.9,22.1 15.7,18.7 19.7,15 22.4,15 25,13 	"/>
	<g>
		
			<rect x="33.2" y="1.4" transform="matrix(1 -4.290626e-03 4.290626e-03 1 -1.201292e-02 0.1551)" class="st2" width="5.9" height="2.9"/>
		
			<rect x="33.2" y="16.8" transform="matrix(1 -4.290626e-03 4.290626e-03 1 -7.814258e-02 0.1555)" class="st2" width="5.9" height="2.9"/>
		
			<rect x="24" y="10.6" transform="matrix(1 -4.290626e-03 4.290626e-03 1 -5.196588e-02 0.1167)" class="st2" width="6.3" height="3.1"/>
		
			<rect x="17.7" y="13.8" transform="matrix(1 -4.290626e-03 4.290626e-03 1 -6.542294e-02 8.963082e-02)" class="st2" width="6.3" height="3.1"/>
		
			<rect x="34.4" y="9.1" transform="matrix(4.290626e-03 1 -1 4.290626e-03 51.0201 -30.1152)" class="st2" width="12.5" height="2.9"/>
		
			<rect x="25.5" y="9.1" transform="matrix(4.290626e-03 1 -1 4.290626e-03 42.2185 -21.1996)" class="st2" width="12.5" height="2.9"/>
		
			<rect x="3.8" y="27.9" transform="matrix(4.290626e-03 1 -1 4.290626e-03 39.3405 19.1148)" class="st2" width="12.5" height="2.9"/>
		
			<rect x="11.5" y="35.5" transform="matrix(-1 4.290626e-03 -4.290626e-03 -1 35.7809 73.8942)" class="st2" width="12.5" height="2.9"/>
		
			<rect x="48.5" y="35.4" transform="matrix(-1 4.290626e-03 -4.290626e-03 -1 109.6377 73.4189)" class="st2" width="12.5" height="2.9"/>
		
			<rect x="24.1" y="38.4" transform="matrix(-1 4.290626e-03 -4.290626e-03 -1 72.8693 79.4509)" class="st2" width="24.4" height="2.9"/>
		
			<rect x="5" y="42.1" transform="matrix(4.290626e-03 1 -1 4.290626e-03 56.5582 30.3663)" class="st2" width="16.1" height="2.9"/>
		
			<rect x="12.9" y="53.2" transform="matrix(4.290626e-03 1 -1 4.290626e-03 70.6013 38.4839)" class="st2" width="6.3" height="2.9"/>
		
			<rect x="53.6" y="53.1" transform="matrix(4.290626e-03 1 -1 4.290626e-03 111.0029 -2.4411)" class="st2" width="6.3" height="2.9"/>
		
			<rect x="48.9" y="41.3" transform="matrix(4.290626e-03 1 -1 4.290626e-03 102.0639 -17.0117)" class="st2" width="21.3" height="2.9"/>
		
			<rect x="56.2" y="27.6" transform="matrix(4.290626e-03 1 -1 4.290626e-03 91.233 -33.45)" class="st2" width="12.5" height="2.9"/>
		
			<rect x="14.6" y="16.8" transform="matrix(1 -4.290626e-03 4.290626e-03 1 -7.859740e-02 6.954076e-02)" class="st2" width="3.1" height="3.1"/>
		
			<rect x="11.5" y="19.9" transform="matrix(1 -4.290626e-03 4.290626e-03 1 -9.201244e-02 5.629729e-02)" class="st2" width="3.1" height="3.1"/>
		
			<rect x="42.1" y="10.6" transform="matrix(-1 4.290626e-03 -4.290626e-03 -1 90.4744 23.9906)" class="st2" width="6.3" height="3.1"/>
		
			<rect x="48.4" y="13.6" transform="matrix(-1 4.290626e-03 -4.290626e-03 -1 103.1586 30.1006)" class="st2" width="6.3" height="3.1"/>
		
			<rect x="54.7" y="16.6" transform="matrix(-1 4.290626e-03 -4.290626e-03 -1 112.6015 36.1205)" class="st2" width="3.1" height="3.1"/>
		
			<rect x="57.8" y="19.7" transform="matrix(-1 4.290626e-03 -4.290626e-03 -1 118.8546 42.2937)" class="st2" width="3.1" height="3.1"/>
		<rect x="33.5" y="67" transform="matrix(1 -4.290626e-03 4.290626e-03 1 -0.2935 0.1569)" class="st2" width="5.9" height="2.9"/>
		<rect x="27" y="63.9" transform="matrix(1 -4.290626e-03 4.290626e-03 1 -0.2806 0.1305)" class="st2" width="6.5" height="3.2"/>
		
			<rect x="20.6" y="60.8" transform="matrix(1 -4.290626e-03 4.290626e-03 1 -0.2672 0.1027)" class="st2" width="6.5" height="3.2"/>
		
			<rect x="17.5" y="57.8" transform="matrix(1 -4.290626e-03 4.290626e-03 1 -0.2545 8.220906e-02)" class="st2" width="3.1" height="3.1"/>
		
			<rect x="39.3" y="63.8" transform="matrix(-1 4.290626e-03 -4.290626e-03 -1 85.4352 130.6455)" class="st2" width="6.5" height="3.2"/>
		
			<rect x="45.8" y="60.6" transform="matrix(-1 4.290626e-03 -4.290626e-03 -1 98.3356 124.2464)" class="st2" width="6.5" height="3.2"/>
		
			<rect x="52.2" y="57.7" transform="matrix(-1 4.290626e-03 -4.290626e-03 -1 107.7935 118.1976)" class="st2" width="3.1" height="3.1"/>
	</g>
</g>
<rect x="32.7" y="8.1" transform="matrix(4.290626e-03 1 -1 4.290626e-03 45.3561 -26.2579)" class="st3" width="6.3" height="3.1"/>
<rect x="18" y="21.4" transform="matrix(-1 4.290626e-03 -4.290626e-03 -1 42.3069 45.7084)" class="st3" width="6.3" height="3.1"/>
<rect x="18" y="27.5" transform="matrix(-1 4.290611e-03 -4.290611e-03 -1 49.4485 57.9113)" class="st3" width="13.4" height="3.1"/>
<rect x="18" y="24.5" transform="matrix(-1 4.290626e-03 -4.290626e-03 -1 42.3202 51.9333)" class="st3" width="6.3" height="3.1"/>
<rect x="24.1" y="24.5" transform="matrix(-1 4.290614e-03 -4.290614e-03 -1 58.603 51.8809)" class="st3" width="10.3" height="3.1"/>
<rect x="15.2" y="24.5" transform="matrix(-1 4.290626e-03 -4.290626e-03 -1 36.8986 51.9449)" class="st3" width="6.3" height="3.1"/>
</svg>
